<mxfile host="app.diagrams.net" modified="2023-07-14T01:57:15.939Z" agent="Mozilla/5.0 (Macintosh; Intel Mac OS X 10_15_7) AppleWebKit/537.36 (KHTML, like Gecko) Chrome/114.0.0.0 Safari/537.36" etag="KiSCD8IlF1SGv9x-BpKm" version="21.4.0" type="github">
  <diagram name="Page-1" id="t_iNMAhHm-LLwGjUOS0Z">
    <mxGraphModel dx="1418" dy="732" grid="1" gridSize="10" guides="1" tooltips="1" connect="1" arrows="1" fold="1" page="1" pageScale="1" pageWidth="827" pageHeight="1169" math="0" shadow="0">
      <root>
        <mxCell id="0" />
        <mxCell id="1" parent="0" />
        <mxCell id="zD13dyGdP_NljmLLcGju-31" style="edgeStyle=orthogonalEdgeStyle;rounded=0;orthogonalLoop=1;jettySize=auto;html=1;entryX=0;entryY=0.5;entryDx=0;entryDy=0;entryPerimeter=0;" edge="1" parent="1" source="zD13dyGdP_NljmLLcGju-1" target="zD13dyGdP_NljmLLcGju-2">
          <mxGeometry relative="1" as="geometry" />
        </mxCell>
        <mxCell id="zD13dyGdP_NljmLLcGju-1" value="EventBus" style="sketch=0;outlineConnect=0;fontColor=#232F3E;gradientColor=none;strokeColor=#232F3E;fillColor=#ffffff;dashed=0;verticalLabelPosition=bottom;verticalAlign=top;align=center;html=1;fontSize=12;fontStyle=0;aspect=fixed;shape=mxgraph.aws4.resourceIcon;resIcon=mxgraph.aws4.event_time_based;" vertex="1" parent="1">
          <mxGeometry x="143" y="209" width="60" height="60" as="geometry" />
        </mxCell>
        <mxCell id="zD13dyGdP_NljmLLcGju-11" style="edgeStyle=orthogonalEdgeStyle;rounded=0;orthogonalLoop=1;jettySize=auto;html=1;entryX=0;entryY=0.5;entryDx=0;entryDy=0;entryPerimeter=0;" edge="1" parent="1" source="zD13dyGdP_NljmLLcGju-2" target="zD13dyGdP_NljmLLcGju-3">
          <mxGeometry relative="1" as="geometry" />
        </mxCell>
        <mxCell id="zD13dyGdP_NljmLLcGju-2" value="" style="sketch=0;points=[[0,0,0],[0.25,0,0],[0.5,0,0],[0.75,0,0],[1,0,0],[0,1,0],[0.25,1,0],[0.5,1,0],[0.75,1,0],[1,1,0],[0,0.25,0],[0,0.5,0],[0,0.75,0],[1,0.25,0],[1,0.5,0],[1,0.75,0]];outlineConnect=0;fontColor=#232F3E;gradientColor=#FF4F8B;gradientDirection=north;fillColor=#BC1356;strokeColor=#ffffff;dashed=0;verticalLabelPosition=bottom;verticalAlign=top;align=center;html=1;fontSize=12;fontStyle=0;aspect=fixed;shape=mxgraph.aws4.resourceIcon;resIcon=mxgraph.aws4.sqs;" vertex="1" parent="1">
          <mxGeometry x="280" y="209" width="60" height="60" as="geometry" />
        </mxCell>
        <mxCell id="zD13dyGdP_NljmLLcGju-12" style="edgeStyle=orthogonalEdgeStyle;rounded=0;orthogonalLoop=1;jettySize=auto;html=1;entryX=0;entryY=0.5;entryDx=0;entryDy=0;" edge="1" parent="1" source="zD13dyGdP_NljmLLcGju-3" target="zD13dyGdP_NljmLLcGju-6">
          <mxGeometry relative="1" as="geometry" />
        </mxCell>
        <mxCell id="zD13dyGdP_NljmLLcGju-3" value="" style="sketch=0;points=[[0,0,0],[0.25,0,0],[0.5,0,0],[0.75,0,0],[1,0,0],[0,1,0],[0.25,1,0],[0.5,1,0],[0.75,1,0],[1,1,0],[0,0.25,0],[0,0.5,0],[0,0.75,0],[1,0.25,0],[1,0.5,0],[1,0.75,0]];outlineConnect=0;fontColor=#232F3E;gradientColor=#F78E04;gradientDirection=north;fillColor=#D05C17;strokeColor=#ffffff;dashed=0;verticalLabelPosition=bottom;verticalAlign=top;align=center;html=1;fontSize=12;fontStyle=0;aspect=fixed;shape=mxgraph.aws4.resourceIcon;resIcon=mxgraph.aws4.lambda;" vertex="1" parent="1">
          <mxGeometry x="384" y="210" width="59" height="59" as="geometry" />
        </mxCell>
        <mxCell id="zD13dyGdP_NljmLLcGju-14" style="edgeStyle=orthogonalEdgeStyle;rounded=0;orthogonalLoop=1;jettySize=auto;html=1;" edge="1" parent="1">
          <mxGeometry relative="1" as="geometry">
            <mxPoint x="530.5833333333335" y="305" as="sourcePoint" />
            <mxPoint x="531" y="285" as="targetPoint" />
          </mxGeometry>
        </mxCell>
        <mxCell id="zD13dyGdP_NljmLLcGju-15" style="edgeStyle=orthogonalEdgeStyle;rounded=0;orthogonalLoop=1;jettySize=auto;html=1;entryX=0.5;entryY=0.155;entryDx=0;entryDy=0;entryPerimeter=0;" edge="1" parent="1">
          <mxGeometry relative="1" as="geometry">
            <mxPoint x="531" y="385" as="sourcePoint" />
            <mxPoint x="530.72" y="421.20000000000005" as="targetPoint" />
          </mxGeometry>
        </mxCell>
        <mxCell id="zD13dyGdP_NljmLLcGju-4" value="" style="sketch=0;points=[[0,0,0],[0.25,0,0],[0.5,0,0],[0.75,0,0],[1,0,0],[0,1,0],[0.25,1,0],[0.5,1,0],[0.75,1,0],[1,1,0],[0,0.25,0],[0,0.5,0],[0,0.75,0],[1,0.25,0],[1,0.5,0],[1,0.75,0]];outlineConnect=0;fontColor=#232F3E;gradientColor=#F78E04;gradientDirection=north;fillColor=#D05C17;strokeColor=#ffffff;dashed=0;verticalLabelPosition=bottom;verticalAlign=top;align=center;html=1;fontSize=12;fontStyle=0;aspect=fixed;shape=mxgraph.aws4.resourceIcon;resIcon=mxgraph.aws4.lambda;" vertex="1" parent="1">
          <mxGeometry x="501.11" y="310" width="59" height="59" as="geometry" />
        </mxCell>
        <mxCell id="zD13dyGdP_NljmLLcGju-13" style="edgeStyle=orthogonalEdgeStyle;rounded=0;orthogonalLoop=1;jettySize=auto;html=1;" edge="1" parent="1" target="zD13dyGdP_NljmLLcGju-6">
          <mxGeometry relative="1" as="geometry">
            <mxPoint x="531" y="170" as="sourcePoint" />
          </mxGeometry>
        </mxCell>
        <mxCell id="zD13dyGdP_NljmLLcGju-5" value="" style="sketch=0;points=[[0,0,0],[0.25,0,0],[0.5,0,0],[0.75,0,0],[1,0,0],[0,1,0],[0.25,1,0],[0.5,1,0],[0.75,1,0],[1,1,0],[0,0.25,0],[0,0.5,0],[0,0.75,0],[1,0.25,0],[1,0.5,0],[1,0.75,0]];outlineConnect=0;fontColor=#232F3E;gradientColor=#F78E04;gradientDirection=north;fillColor=#D05C17;strokeColor=#ffffff;dashed=0;verticalLabelPosition=bottom;verticalAlign=top;align=center;html=1;fontSize=12;fontStyle=0;aspect=fixed;shape=mxgraph.aws4.resourceIcon;resIcon=mxgraph.aws4.lambda;" vertex="1" parent="1">
          <mxGeometry x="501.22" y="101" width="59" height="59" as="geometry" />
        </mxCell>
        <mxCell id="zD13dyGdP_NljmLLcGju-17" style="edgeStyle=orthogonalEdgeStyle;rounded=0;orthogonalLoop=1;jettySize=auto;html=1;" edge="1" parent="1" source="zD13dyGdP_NljmLLcGju-6" target="zD13dyGdP_NljmLLcGju-16">
          <mxGeometry relative="1" as="geometry" />
        </mxCell>
        <mxCell id="zD13dyGdP_NljmLLcGju-6" value="" style="image;aspect=fixed;perimeter=ellipsePerimeter;html=1;align=center;shadow=0;dashed=0;spacingTop=3;image=img/lib/active_directory/databases.svg;" vertex="1" parent="1">
          <mxGeometry x="500" y="210" width="61.22" height="60" as="geometry" />
        </mxCell>
        <mxCell id="zD13dyGdP_NljmLLcGju-7" value="" style="outlineConnect=0;dashed=0;verticalLabelPosition=bottom;verticalAlign=top;align=center;html=1;shape=mxgraph.aws3.email;fillColor=#D9A741;gradientColor=none;" vertex="1" parent="1">
          <mxGeometry x="500.22" y="420" width="61" height="40" as="geometry" />
        </mxCell>
        <mxCell id="zD13dyGdP_NljmLLcGju-9" style="edgeStyle=orthogonalEdgeStyle;rounded=0;orthogonalLoop=1;jettySize=auto;html=1;" edge="1" parent="1" source="zD13dyGdP_NljmLLcGju-8" target="zD13dyGdP_NljmLLcGju-1">
          <mxGeometry relative="1" as="geometry" />
        </mxCell>
        <mxCell id="zD13dyGdP_NljmLLcGju-8" value="" style="sketch=0;points=[[0,0,0],[0.25,0,0],[0.5,0,0],[0.75,0,0],[1,0,0],[0,1,0],[0.25,1,0],[0.5,1,0],[0.75,1,0],[1,1,0],[0,0.25,0],[0,0.5,0],[0,0.75,0],[1,0.25,0],[1,0.5,0],[1,0.75,0]];points=[[0,0,0],[0.25,0,0],[0.5,0,0],[0.75,0,0],[1,0,0],[0,1,0],[0.25,1,0],[0.5,1,0],[0.75,1,0],[1,1,0],[0,0.25,0],[0,0.5,0],[0,0.75,0],[1,0.25,0],[1,0.5,0],[1,0.75,0]];outlineConnect=0;fontColor=#232F3E;gradientColor=#F34482;gradientDirection=north;fillColor=#BC1356;strokeColor=#ffffff;dashed=0;verticalLabelPosition=bottom;verticalAlign=top;align=center;html=1;fontSize=12;fontStyle=0;aspect=fixed;shape=mxgraph.aws4.resourceIcon;resIcon=mxgraph.aws4.trusted_advisor;" vertex="1" parent="1">
          <mxGeometry x="143" y="100" width="60" height="60" as="geometry" />
        </mxCell>
        <mxCell id="zD13dyGdP_NljmLLcGju-16" value="" style="sketch=0;outlineConnect=0;fontColor=#232F3E;gradientColor=none;fillColor=#4D27AA;strokeColor=none;dashed=0;verticalLabelPosition=bottom;verticalAlign=top;align=center;html=1;fontSize=12;fontStyle=0;aspect=fixed;pointerEvents=1;shape=mxgraph.aws4.quicksight_paginated_reports;" vertex="1" parent="1">
          <mxGeometry x="630" y="201" width="62" height="78" as="geometry" />
        </mxCell>
        <mxCell id="zD13dyGdP_NljmLLcGju-18" value="Lambda1" style="text;strokeColor=none;align=center;fillColor=none;html=1;verticalAlign=middle;whiteSpace=wrap;rounded=0;" vertex="1" parent="1">
          <mxGeometry x="384" y="262" width="60" height="30" as="geometry" />
        </mxCell>
        <mxCell id="zD13dyGdP_NljmLLcGju-19" value="Lambda2" style="text;strokeColor=none;align=center;fillColor=none;html=1;verticalAlign=middle;whiteSpace=wrap;rounded=0;" vertex="1" parent="1">
          <mxGeometry x="501.22" y="362" width="60" height="30" as="geometry" />
        </mxCell>
        <mxCell id="zD13dyGdP_NljmLLcGju-23" value="Lambda3" style="text;strokeColor=none;align=center;fillColor=none;html=1;verticalAlign=middle;whiteSpace=wrap;rounded=0;" vertex="1" parent="1">
          <mxGeometry x="501.22" y="152" width="60" height="30" as="geometry" />
        </mxCell>
        <mxCell id="zD13dyGdP_NljmLLcGju-24" value="Trusted advisor" style="text;strokeColor=none;align=center;fillColor=none;html=1;verticalAlign=middle;whiteSpace=wrap;rounded=0;" vertex="1" parent="1">
          <mxGeometry x="120" y="80" width="100" height="30" as="geometry" />
        </mxCell>
        <mxCell id="zD13dyGdP_NljmLLcGju-25" value="SQS" style="text;strokeColor=none;align=center;fillColor=none;html=1;verticalAlign=middle;whiteSpace=wrap;rounded=0;" vertex="1" parent="1">
          <mxGeometry x="280" y="262" width="60" height="30" as="geometry" />
        </mxCell>
        <mxCell id="zD13dyGdP_NljmLLcGju-26" value="Reports" style="text;strokeColor=none;align=center;fillColor=none;html=1;verticalAlign=middle;whiteSpace=wrap;rounded=0;" vertex="1" parent="1">
          <mxGeometry x="632" y="279" width="60" height="30" as="geometry" />
        </mxCell>
        <mxCell id="zD13dyGdP_NljmLLcGju-27" value="Notifications" style="text;strokeColor=none;align=center;fillColor=none;html=1;verticalAlign=middle;whiteSpace=wrap;rounded=0;" vertex="1" parent="1">
          <mxGeometry x="486.22" y="455" width="98.78" height="30" as="geometry" />
        </mxCell>
        <mxCell id="zD13dyGdP_NljmLLcGju-29" value="" style="sketch=0;aspect=fixed;pointerEvents=1;shadow=0;dashed=0;html=1;strokeColor=none;labelPosition=center;verticalLabelPosition=bottom;verticalAlign=top;align=center;fillColor=#00188D;shape=mxgraph.mscae.enterprise.filter" vertex="1" parent="1">
          <mxGeometry x="220" y="223.25" width="35" height="31.5" as="geometry" />
        </mxCell>
        <mxCell id="zD13dyGdP_NljmLLcGju-32" value="Database" style="text;strokeColor=none;align=center;fillColor=none;html=1;verticalAlign=middle;whiteSpace=wrap;rounded=0;" vertex="1" parent="1">
          <mxGeometry x="500" y="259.75" width="60" height="30" as="geometry" />
        </mxCell>
      </root>
    </mxGraphModel>
  </diagram>
</mxfile>
